<?xml version="1.0" encoding="utf-8"?>
<!-- Generator: Adobe Illustrator 27.5.0, SVG Export Plug-In . SVG Version: 6.00 Build 0)  -->
<svg version="1.1" xmlns="http://www.w3.org/2000/svg" xmlns:xlink="http://www.w3.org/1999/xlink" x="0px" y="0px"
	 viewBox="0 0 500 500" style="enable-background:new 0 0 500 500;" xml:space="preserve">
<g id="BACKGROUND">
	<rect style="fill:#FFFFFF;" width="500" height="500"/>
</g>
<g id="OBJECTS">
	<g>
		<path style="fill:#F6CAB7;" d="M418.004,390.886H78.262c-13.179,0-23.862-10.684-23.862-23.862V74.83
			c0-13.179,10.684-23.862,23.862-23.862h339.742c13.179,0,23.862,10.683,23.862,23.862v292.193
			C441.866,380.203,431.183,390.886,418.004,390.886z"/>
		<g style="opacity:0.4;">
			<defs>
				<path id="SVGID_1_" style="opacity:0.4;" d="M418.004,390.886H78.262c-13.179,0-23.862-10.684-23.862-23.862V74.83
					c0-13.179,10.684-23.862,23.862-23.862h339.742c13.179,0,23.862,10.683,23.862,23.862v292.193
					C441.866,380.203,431.183,390.886,418.004,390.886z"/>
			</defs>
			<clipPath id="SVGID_00000065046890751900590730000015071026096873141426_">
				<use xlink:href="#SVGID_1_"  style="overflow:visible;"/>
			</clipPath>
			<g style="clip-path:url(#SVGID_00000065046890751900590730000015071026096873141426_);">
				<g>
					<g>
						<g>
							
								<line style="fill:none;stroke:#FFFFFF;stroke-width:0.5064;stroke-miterlimit:10;" x1="-303.587" y1="-328.632" x2="799.852" y2="-328.632"/>
						</g>
						<g>
							
								<line style="fill:none;stroke:#FFFFFF;stroke-width:0.5064;stroke-miterlimit:10;" x1="-303.587" y1="-259.937" x2="799.852" y2="-259.937"/>
						</g>
						<g>
							
								<line style="fill:none;stroke:#FFFFFF;stroke-width:0.5064;stroke-miterlimit:10;" x1="-303.587" y1="-191.242" x2="799.852" y2="-191.242"/>
						</g>
						<g>
							
								<line style="fill:none;stroke:#FFFFFF;stroke-width:0.5064;stroke-miterlimit:10;" x1="-303.587" y1="-122.547" x2="799.852" y2="-122.547"/>
						</g>
						<g>
							
								<line style="fill:none;stroke:#FFFFFF;stroke-width:0.5064;stroke-miterlimit:10;" x1="-303.587" y1="-53.852" x2="799.852" y2="-53.852"/>
						</g>
						<g>
							
								<line style="fill:none;stroke:#FFFFFF;stroke-width:0.5064;stroke-miterlimit:10;" x1="-303.587" y1="14.843" x2="799.852" y2="14.843"/>
						</g>
						<g>
							
								<line style="fill:none;stroke:#FFFFFF;stroke-width:0.5064;stroke-miterlimit:10;" x1="-303.587" y1="83.538" x2="799.852" y2="83.538"/>
						</g>
						<g>
							
								<line style="fill:none;stroke:#FFFFFF;stroke-width:0.5064;stroke-miterlimit:10;" x1="-303.587" y1="152.232" x2="799.852" y2="152.232"/>
						</g>
						<g>
							
								<line style="fill:none;stroke:#FFFFFF;stroke-width:0.5064;stroke-miterlimit:10;" x1="-303.587" y1="220.927" x2="799.852" y2="220.927"/>
						</g>
						<g>
							
								<line style="fill:none;stroke:#FFFFFF;stroke-width:0.5064;stroke-miterlimit:10;" x1="-303.587" y1="289.622" x2="799.852" y2="289.622"/>
						</g>
						<g>
							
								<line style="fill:none;stroke:#FFFFFF;stroke-width:0.5064;stroke-miterlimit:10;" x1="-303.587" y1="358.317" x2="799.852" y2="358.317"/>
						</g>
						<g>
							
								<line style="fill:none;stroke:#FFFFFF;stroke-width:0.5064;stroke-miterlimit:10;" x1="-303.587" y1="427.012" x2="799.852" y2="427.012"/>
						</g>
						<g>
							
								<line style="fill:none;stroke:#FFFFFF;stroke-width:0.5064;stroke-miterlimit:10;" x1="-303.587" y1="495.707" x2="799.852" y2="495.707"/>
						</g>
						<g>
							
								<line style="fill:none;stroke:#FFFFFF;stroke-width:0.5064;stroke-miterlimit:10;" x1="-303.587" y1="564.401" x2="799.852" y2="564.401"/>
						</g>
						<g>
							
								<line style="fill:none;stroke:#FFFFFF;stroke-width:0.5064;stroke-miterlimit:10;" x1="-303.587" y1="633.096" x2="799.852" y2="633.096"/>
						</g>
						<g>
							
								<line style="fill:none;stroke:#FFFFFF;stroke-width:0.5064;stroke-miterlimit:10;" x1="-303.587" y1="701.791" x2="799.852" y2="701.791"/>
						</g>
						<g>
							
								<line style="fill:none;stroke:#FFFFFF;stroke-width:0.5064;stroke-miterlimit:10;" x1="-303.587" y1="770.486" x2="799.852" y2="770.486"/>
						</g>
					</g>
					<g>
						<g>
							
								<line style="fill:none;stroke:#FFFFFF;stroke-width:0.5064;stroke-miterlimit:10;" x1="797.691" y1="-330.793" x2="797.691" y2="772.647"/>
						</g>
						<g>
							
								<line style="fill:none;stroke:#FFFFFF;stroke-width:0.5064;stroke-miterlimit:10;" x1="728.996" y1="-330.793" x2="728.996" y2="772.647"/>
						</g>
						<g>
							
								<line style="fill:none;stroke:#FFFFFF;stroke-width:0.5064;stroke-miterlimit:10;" x1="660.302" y1="-330.793" x2="660.302" y2="772.647"/>
						</g>
						<g>
							
								<line style="fill:none;stroke:#FFFFFF;stroke-width:0.5064;stroke-miterlimit:10;" x1="591.607" y1="-330.793" x2="591.607" y2="772.647"/>
						</g>
						<g>
							
								<line style="fill:none;stroke:#FFFFFF;stroke-width:0.5064;stroke-miterlimit:10;" x1="522.912" y1="-330.793" x2="522.912" y2="772.647"/>
						</g>
						<g>
							
								<line style="fill:none;stroke:#FFFFFF;stroke-width:0.5064;stroke-miterlimit:10;" x1="454.217" y1="-330.793" x2="454.217" y2="772.647"/>
						</g>
						<g>
							
								<line style="fill:none;stroke:#FFFFFF;stroke-width:0.5064;stroke-miterlimit:10;" x1="385.522" y1="-330.793" x2="385.522" y2="772.647"/>
						</g>
						<g>
							
								<line style="fill:none;stroke:#FFFFFF;stroke-width:0.5064;stroke-miterlimit:10;" x1="316.828" y1="-330.793" x2="316.828" y2="772.647"/>
						</g>
						<g>
							
								<line style="fill:none;stroke:#FFFFFF;stroke-width:0.5064;stroke-miterlimit:10;" x1="248.133" y1="-330.793" x2="248.133" y2="772.647"/>
						</g>
						<g>
							
								<line style="fill:none;stroke:#FFFFFF;stroke-width:0.5064;stroke-miterlimit:10;" x1="179.438" y1="-330.793" x2="179.438" y2="772.647"/>
						</g>
						<g>
							
								<line style="fill:none;stroke:#FFFFFF;stroke-width:0.5064;stroke-miterlimit:10;" x1="110.743" y1="-330.793" x2="110.743" y2="772.647"/>
						</g>
						<g>
							
								<line style="fill:none;stroke:#FFFFFF;stroke-width:0.5064;stroke-miterlimit:10;" x1="42.048" y1="-330.793" x2="42.048" y2="772.647"/>
						</g>
						<g>
							
								<line style="fill:none;stroke:#FFFFFF;stroke-width:0.5064;stroke-miterlimit:10;" x1="-26.646" y1="-330.793" x2="-26.646" y2="772.647"/>
						</g>
						<g>
							
								<line style="fill:none;stroke:#FFFFFF;stroke-width:0.5064;stroke-miterlimit:10;" x1="-95.341" y1="-330.793" x2="-95.341" y2="772.647"/>
						</g>
						<g>
							
								<line style="fill:none;stroke:#FFFFFF;stroke-width:0.5064;stroke-miterlimit:10;" x1="-164.036" y1="-330.793" x2="-164.036" y2="772.647"/>
						</g>
						<g>
							
								<line style="fill:none;stroke:#FFFFFF;stroke-width:0.5064;stroke-miterlimit:10;" x1="-232.731" y1="-330.793" x2="-232.731" y2="772.647"/>
						</g>
						<g>
							
								<line style="fill:none;stroke:#FFFFFF;stroke-width:0.5064;stroke-miterlimit:10;" x1="-301.426" y1="-330.793" x2="-301.426" y2="772.647"/>
						</g>
					</g>
				</g>
			</g>
		</g>
	</g>
	<g>
		<path style="fill:#D6AD9D;" d="M266.52,134.234h-24.83c-1.648,0-2.99,1.342-2.99,2.99c0,1.648,1.342,2.989,2.99,2.989h24.83
			c1.649,0,2.99-1.342,2.99-2.989C269.51,135.575,268.168,134.234,266.52,134.234z"/>
		<path style="fill:#D6AD9D;" d="M255.404,144.114h-13.715c-1.648,0-2.99,1.341-2.99,2.989c0,1.649,1.342,2.99,2.99,2.99h13.715
			c1.649,0,2.99-1.341,2.99-2.99C258.395,145.456,257.053,144.114,255.404,144.114z"/>
	</g>
	<g>
		<path style="fill:#D6AD9D;" d="M455.845,324.27h-24.83c-1.648,0-2.99,1.342-2.99,2.99c0,1.648,1.341,2.989,2.99,2.989h24.83
			c1.649,0,2.99-1.342,2.99-2.989C458.835,325.611,457.494,324.27,455.845,324.27z"/>
		<path style="fill:#D6AD9D;" d="M444.73,334.15h-13.715c-1.648,0-2.99,1.341-2.99,2.989c0,1.649,1.341,2.99,2.99,2.99h13.715
			c1.649,0,2.991-1.341,2.991-2.99C447.72,335.492,446.379,334.15,444.73,334.15z"/>
	</g>
	<g>
		<g>
			<path style="fill:#D6AD9D;" d="M450.569,196.78h-47.433c-4.566,0-8.267-3.701-8.267-8.267v-19.852
				c0-4.566,3.701-8.267,8.267-8.267h47.433c4.566,0,8.267,3.701,8.267,8.267v19.852C458.835,193.079,455.134,196.78,450.569,196.78
				z"/>
			<path style="fill:#D6AD9D;" d="M394.906,179.036l-11.011-3.111c-0.35-0.099-0.62,0.31-0.391,0.593l11.776,14.573L394.906,179.036
				z"/>
		</g>
		<g>
			<path style="fill:#FFFFFF;" d="M410.573,174.421c-2.297,0-4.167,1.869-4.167,4.166c0,2.297,1.869,4.167,4.167,4.167
				c2.297,0,4.167-1.869,4.167-4.167C414.739,176.29,412.87,174.421,410.573,174.421z"/>
			<path style="fill:#FFFFFF;" d="M443.132,174.421c-2.298,0-4.167,1.869-4.167,4.166c0,2.297,1.869,4.167,4.167,4.167
				c2.298,0,4.167-1.869,4.167-4.167C447.299,176.29,445.43,174.421,443.132,174.421z"/>
			<path style="fill:#FFFFFF;" d="M426.852,174.421c-2.298,0-4.167,1.869-4.167,4.166c0,2.297,1.869,4.167,4.167,4.167
				c2.297,0,4.166-1.869,4.166-4.167C431.019,176.29,429.149,174.421,426.852,174.421z"/>
		</g>
		<polygon style="fill:#BF9B8C;" points="394.906,179.036 394.906,185.06 393.002,178.498 		"/>
	</g>
	<g>
		<path style="fill:#D6AD9D;" d="M68.981,107.333H42.829V87.201c0-7.222,5.854-13.076,13.076-13.076h0
			c7.222,0,13.076,5.854,13.076,13.076V107.333z"/>
		<path style="fill:#FFFFFF;" d="M189.944,74.125H68.981v0.004H55.906c3.616,0,6.879,1.461,9.242,3.823
			c2.364,2.365,3.821,5.611,3.833,9.209v266.605c0,7.712,6.251,13.963,13.963,13.963H202.27V86.45
			C202.27,79.643,196.751,74.125,189.944,74.125z"/>
		<g>
			<path style="fill:#F2E4DF;" d="M186.806,98.995h-55.651c-1.234,0-2.234-1-2.234-2.234v0c0-1.234,1-2.234,2.234-2.234h55.651
				c1.234,0,2.234,1,2.234,2.234v0C189.04,97.995,188.04,98.995,186.806,98.995z"/>
			<path style="fill:#F2E4DF;" d="M186.806,118.319h-55.651c-1.234,0-2.234-1-2.234-2.234l0,0c0-1.234,1-2.234,2.234-2.234h55.651
				c1.234,0,2.234,1,2.234,2.234l0,0C189.04,117.319,188.04,118.319,186.806,118.319z"/>
			<path style="fill:#F2E4DF;" d="M186.806,137.642h-55.651c-1.234,0-2.234-1-2.234-2.234l0,0c0-1.234,1-2.234,2.234-2.234h55.651
				c1.234,0,2.234,1,2.234,2.234l0,0C189.04,136.642,188.04,137.642,186.806,137.642z"/>
			<path style="fill:#F2E4DF;" d="M186.806,156.966H91.75c-1.234,0-2.234-1-2.234-2.234l0,0c0-1.234,1-2.234,2.234-2.234h95.056
				c1.234,0,2.234,1,2.234,2.234l0,0C189.04,155.966,188.04,156.966,186.806,156.966z"/>
			<path style="fill:#F2E4DF;" d="M186.806,176.289H91.75c-1.234,0-2.234-1-2.234-2.234l0,0c0-1.234,1-2.234,2.234-2.234h95.056
				c1.234,0,2.234,1,2.234,2.234l0,0C189.04,175.289,188.04,176.289,186.806,176.289z"/>
			<path style="fill:#F2E4DF;" d="M186.806,195.613H91.75c-1.234,0-2.234-1-2.234-2.234l0,0c0-1.234,1-2.234,2.234-2.234h95.056
				c1.234,0,2.234,1,2.234,2.234l0,0C189.04,194.613,188.04,195.613,186.806,195.613z"/>
			<path style="fill:#F2E4DF;" d="M186.806,214.936H91.75c-1.234,0-2.234-1-2.234-2.234l0,0c0-1.234,1-2.234,2.234-2.234h95.056
				c1.234,0,2.234,1,2.234,2.234l0,0C189.04,213.936,188.04,214.936,186.806,214.936z"/>
			<path style="fill:#F2E4DF;" d="M186.806,234.26H91.75c-1.234,0-2.234-1-2.234-2.234l0,0c0-1.234,1-2.234,2.234-2.234h95.056
				c1.234,0,2.234,1,2.234,2.234l0,0C189.04,233.26,188.04,234.26,186.806,234.26z"/>
			<path style="fill:#F2E4DF;" d="M186.806,253.583H91.75c-1.234,0-2.234-1-2.234-2.234l0,0c0-1.234,1-2.234,2.234-2.234h95.056
				c1.234,0,2.234,1,2.234,2.234l0,0C189.04,252.583,188.04,253.583,186.806,253.583z"/>
			<path style="fill:#F2E4DF;" d="M186.806,272.907H91.75c-1.234,0-2.234-1-2.234-2.234l0,0c0-1.234,1-2.234,2.234-2.234h95.056
				c1.234,0,2.234,1,2.234,2.234l0,0C189.04,271.907,188.04,272.907,186.806,272.907z"/>
			<path style="fill:#F2E4DF;" d="M186.806,292.23H91.75c-1.234,0-2.234-1-2.234-2.234l0,0c0-1.234,1-2.234,2.234-2.234h95.056
				c1.234,0,2.234,1,2.234,2.234l0,0C189.04,291.23,188.04,292.23,186.806,292.23z"/>
			<path style="fill:#F2E4DF;" d="M186.806,311.554H91.75c-1.234,0-2.234-1-2.234-2.234l0,0c0-1.234,1-2.234,2.234-2.234h95.056
				c1.234,0,2.234,1,2.234,2.234l0,0C189.04,310.554,188.04,311.554,186.806,311.554z"/>
			<path style="fill:#F2E4DF;" d="M116.899,137.642H92.974c-1.91,0-3.458-1.548-3.458-3.458V97.986c0-1.91,1.548-3.458,3.458-3.458
				h23.925c1.91,0,3.458,1.548,3.458,3.458v36.198C120.357,136.094,118.809,137.642,116.899,137.642z"/>
		</g>
		<path style="fill:#D6AD9D;" d="M189.358,334.522l-0.003,0.002H95.137v20.124c0,7.086-5.625,12.846-12.651,13.065
			c0.158,0.012,0.304,0.012,0.463,0.012h119.325c-0.099-0.001-0.195-0.015-0.293-0.018c0.152,0.005,0.3,0.023,0.453,0.023l0,0
			c7.222,0,13.076-5.854,13.076-13.076v-20.132H189.358z M200.827,367.621c0.049,0.006,0.096,0.017,0.146,0.022
			C200.924,367.638,200.876,367.627,200.827,367.621z M193.89,364.539c0.073,0.063,0.14,0.133,0.214,0.194
			C194.03,364.672,193.963,364.602,193.89,364.539z M194.819,365.27c0.094,0.067,0.181,0.142,0.277,0.207
			C195.001,365.412,194.913,365.337,194.819,365.27z M195.978,366.016c0.06,0.034,0.116,0.074,0.177,0.108
			C196.094,366.091,196.038,366.051,195.978,366.016z M197.208,366.637c0.023,0.01,0.044,0.022,0.067,0.032
			C197.251,366.659,197.23,366.647,197.208,366.637z M198.438,367.103c0.005,0.001,0.009,0.003,0.014,0.005
			C198.447,367.106,198.442,367.104,198.438,367.103z M199.639,367.423c0.016,0.003,0.031,0.008,0.046,0.012
			C199.67,367.432,199.655,367.427,199.639,367.423z"/>
	</g>
	<g>
		<g>
			<circle style="fill:#FFFFFF;" cx="262.22" cy="65.693" r="5.078"/>
		</g>
		<g>
			<path style="fill:#FFFFFF;" d="M289.353,65.693c0,2.805-2.274,5.078-5.078,5.078c-2.805,0-5.079-2.274-5.079-5.078
				c0-2.805,2.274-5.079,5.079-5.079C287.079,60.614,289.353,62.888,289.353,65.693z"/>
		</g>
		<g>
			<path style="fill:#FFFFFF;" d="M311.408,65.693c0,2.805-2.274,5.078-5.078,5.078c-2.805,0-5.078-2.274-5.078-5.078
				c0-2.805,2.274-5.079,5.078-5.079C309.134,60.614,311.408,62.888,311.408,65.693z"/>
		</g>
		<g>
			<path style="fill:#FFFFFF;" d="M333.463,65.693c0,2.805-2.274,5.078-5.078,5.078c-2.805,0-5.078-2.274-5.078-5.078
				c0-2.805,2.274-5.079,5.078-5.079C331.189,60.614,333.463,62.888,333.463,65.693z"/>
		</g>
	</g>
	<g>
		<g>
			<path style="fill:#F6CAB7;" d="M65.103,407.062c0,2.805-2.274,5.078-5.079,5.078c-2.805,0-5.078-2.274-5.078-5.078
				c0-2.805,2.274-5.079,5.078-5.079C62.829,401.983,65.103,404.257,65.103,407.062z"/>
		</g>
		<g>
			<path style="fill:#F6CAB7;" d="M87.158,407.062c0,2.805-2.274,5.078-5.078,5.078c-2.805,0-5.079-2.274-5.079-5.078
				c0-2.805,2.274-5.079,5.079-5.079C84.884,401.983,87.158,404.257,87.158,407.062z"/>
		</g>
		<g>
			<path style="fill:#F6CAB7;" d="M109.213,407.062c0,2.805-2.274,5.078-5.078,5.078c-2.805,0-5.078-2.274-5.078-5.078
				c0-2.805,2.274-5.079,5.078-5.079C106.94,401.983,109.213,404.257,109.213,407.062z"/>
		</g>
		<g>
			<path style="fill:#F6CAB7;" d="M131.268,407.062c0,2.805-2.274,5.078-5.078,5.078c-2.805,0-5.078-2.274-5.078-5.078
				c0-2.805,2.274-5.079,5.078-5.079C128.995,401.983,131.268,404.257,131.268,407.062z"/>
		</g>
	</g>
	<path style="fill:#D6AD9D;" d="M439.242,449.032H57.023c-1.449,0-2.624-1.175-2.624-2.624l0,0c0-1.449,1.175-2.624,2.624-2.624
		h382.219c1.449,0,2.624,1.175,2.624,2.624l0,0C441.866,447.857,440.692,449.032,439.242,449.032z"/>
	<g>
		<g>
			<g>
				<g>
					<path style="fill:#FF9191;" d="M324.536,382.316l-6.283,39.162c0,0-13.006,4.431-26.87-1.572l3.001-37.59H324.536z"/>
					<path style="fill:#B83A3A;" d="M318.254,421.478v22.296h-42.74c-4.755,0-8.051-4.919-6.051-9.234
						c0.031-0.068,0.064-0.136,0.096-0.204c0.526-1.09,1.399-1.979,2.432-2.61l19.392-11.821
						C291.384,419.906,304.247,425.48,318.254,421.478z"/>
				</g>
				<g>
					<path style="fill:#FF9191;" d="M362.572,382.316l7.672,39.162c0,0,13.006,4.431,26.87-1.572l-4.391-37.59H362.572z"/>
					<path style="fill:#B83A3A;" d="M370.244,421.478v22.296h42.74c4.755,0,8.051-4.919,6.051-9.234
						c-0.031-0.068-0.063-0.136-0.096-0.204c-0.526-1.09-1.399-1.979-2.432-2.61l-19.392-11.821
						C397.114,419.906,384.251,425.48,370.244,421.478z"/>
				</g>
				<path style="fill:#CC7474;" d="M294.39,382.32h30.15l-5.51,34.29c-10.92-0.18-20.15-2.22-27.03-4.42L294.39,382.32z"/>
				<path style="fill:#CC7474;" d="M396.27,412.68c-6.01,2.04-14.45,3.98-24.77,3.98c-0.73,0-1.46-0.01-2.21-0.03l-6.72-34.31h30.15
					L396.27,412.68z"/>
			</g>
			<g>
				<path style="fill:#2D3A66;" d="M407.18,403.968c0,0-22.097,13.632-52.432,7.447l-10.984-89.957l-2.85-23.383l-3.703-30.344
					h46.166l3.238,20.398L407.18,403.968z"/>
				<path style="fill:#2D3A66;" d="M383.377,267.73c-1.193,10.635-4.77,18.982-9.307,25.478
					c-11.633,16.685-29.54,21.241-29.54,21.241l-0.766,7.009l-9.85,90.693c-31.556,4.556-54.009-8.793-54.009-8.793l15.172-114.92
					l2.734-20.708H383.377z"/>
				<path style="fill:#212D57;" d="M367.602,305.933c-4.573,4.305-11.754,8.823-20.511,10.952l-2.25,13.365l-1.08-8.692l0.77-7.102
					c0,0,10.312-0.739,20.939-10.813c0.628-0.596,1.628-0.55,2.214,0.087l0,0C368.266,304.363,368.228,305.343,367.602,305.933z"/>
			</g>
			<path style="fill:#212D57;" d="M386.615,288.128c-2.705,1.406-6.912,3.306-12.545,5.08c-8.143,2.559-19.263,4.828-33.156,4.867
				h-0.368c-23.025,0-38.507-6.137-45.468-9.636l2.734-20.708h85.565L386.615,288.128z"/>
		</g>
		<g>
			<path style="fill:#32806E;" d="M380.516,199.899l-24.391-10.035h-15.626h-15.626l-24.391,10.035l-8.252,81.665
				c0,0,17.072,11.54,48.269,11.54c31.197,0,48.269-11.54,48.269-11.54L380.516,199.899z"/>
			<path style="fill:#29695A;" d="M385.554,249.809c-12.386,4.269-28.031,6.811-45.051,6.811c-17.021,0-32.679-2.542-45.065-6.811
				l2.247-22.217c12.021,3.82,26.823,6.067,42.818,6.067c15.995,0,30.797-2.247,42.804-6.081L385.554,249.809z"/>
			<path style="fill:#2D7362;" d="M388.772,281.566c0,0-17.076,11.541-48.27,11.541c-31.204,0-48.27-11.541-48.27-11.541
				l0.833-8.278c63.7,21.259,92.131-22.915,92.494-23.474L388.772,281.566z"/>
		</g>
		<g>
			<g>
				<path style="fill:#FF9191;" d="M397.463,214.011l20.388,31.265c0,0,2.11,2.433,3.18,7.198c1.479,6.584-0.248,13.484-4.33,18.858
					l-18.592,24.471c0,0-14.892,1.237-18.215-13.286l14.914-22.334l-17.69-30.845L397.463,214.011z"/>
				<g>
					<path style="fill:#FF9191;" d="M368.286,297.639c-0.012-2.788,0.588-5.437,1.231-7.466c0.833-2.632,2.565-4.863,4.897-6.34
						c4.052-2.567,8.168-3.885,8.168-3.885l3.029,0.327l15.474,2.221c2.556,12.039-5.931,16.103-5.931,16.103
						c0.344,1.483-0.054,4.252-0.372,6.01c-0.266,1.432-0.975,2.782-2.112,3.708c-2.847,2.329-5.955,0.79-5.955,0.79
						c-0.363,0.358-0.759,0.652-1.169,0.881c-0.164,0.088-0.32,0.165-0.486,0.234c-2.779,1.168-6.057-0.36-7.129-3.26l-0.07-0.184
						l-0.023-0.055c-0.54,0.143-1.059,0.181-1.555,0.141c-0.505-0.039-0.989-0.166-1.437-0.333c-1.739-0.673-2.98-2.141-3.549-3.878
						c-0.949-0.432-1.61-1.077-2.057-1.726C368.579,299.967,368.291,298.805,368.286,297.639z"/>
					<g>
						<path style="fill:#CC7474;" d="M395.153,298.601c0,0-2.781,0.484-3.955,0.697l-0.221,3.924
							c-0.025,0.436,0.334,0.797,0.77,0.775l0,0c0.38-0.019,0.684-0.325,0.698-0.706l0.108-2.833c0,0,2.264-0.443,2.74-0.589
							C395.292,299.869,395.338,299.174,395.153,298.601z"/>
						<path style="fill:#CC7474;" d="M391.198,299.298l0.202-3.875c0.02-0.373,0.314-0.672,0.687-0.698l0,0
							c0.444-0.03,0.813,0.337,0.786,0.78l-0.211,3.519L391.198,299.298z"/>
					</g>
					<path style="fill:#CC7474;" d="M385.059,310.222c0.166-0.069,0.321-0.147,0.486-0.234c0.41-0.229,0.806-0.523,1.169-0.881
						l0.47-8.208c0.019-0.4-0.281-0.748-0.674-0.795c-0.048-0.006-0.095-0.003-0.133,0c-0.377,0.027-0.688,0.325-0.708,0.705
						L385.059,310.222z"/>
					<path style="fill:#CC7474;" d="M376.282,306.863c0.496,0.04,1.015,0.003,1.555-0.141l0.023,0.055l0.406-7.246
						c0.028-0.4-0.272-0.749-0.674-0.795c-0.048-0.006-0.095-0.003-0.133,0c-0.377,0.027-0.678,0.324-0.698,0.705L376.282,306.863z"
						/>
					<path style="fill:#CC7474;" d="M371.295,302.659l0.467-6.075c0.03-0.385-0.251-0.724-0.634-0.767l0,0
						c-0.409-0.047-0.773,0.26-0.797,0.671l-0.312,5.331C370.019,301.817,370.586,302.476,371.295,302.659z"/>
				</g>
				<path style="fill:#CC7474;" d="M413.534,238.656c-3.909,4.017-11.885,11.09-22.71,14.578l-13.71-23.895l20.348-15.323
					L413.534,238.656z"/>
			</g>
			<g>
				<path style="fill:#32806E;" d="M380.516,199.899l8.296,3.151c5.045,1.916,9.378,5.34,12.409,9.804l13.504,19.891
					c0,0-11.565,14.9-29.884,18.769l-9.383-24.511c-2.376-6.612-2.314-13.931,0.54-20.351
					C377.052,204.288,378.507,201.944,380.516,199.899z"/>
				<path style="fill:#1E4D42;" d="M384.842,251.514l-8.419-21.991c0,0-2.395-4.784-2.643-11.518c-0.03-0.803-0.692-1.44-1.496-1.44
					l0,0c-0.871,0-1.554,0.735-1.499,1.604c0.149,2.324,1.085,7.053,2.976,12.211l9.611,23.837l2.616-0.167l-0.27-2.674
					L384.842,251.514z"/>
			</g>
		</g>
		<g>
			<path style="fill:#FF9191;" d="M287.798,227.96l-8.021,19.815L264.236,219.9c0,0-14.645,1.811-20.159,11.165l20.184,36.578
				c2.054,3.715,5.223,6.753,9.142,8.383c0.302,0.126,0.613,0.246,0.932,0.36c6.208,2.218,13.152,0.252,17.613-4.602l1.417-1.541
				l3.966-39.159L287.798,227.96z"/>
			<path style="fill:#CC7474;" d="M297.336,231.082l-2.048,20.251c-6.407-0.784-11.384-2.439-15.195-4.34l7.7-19.036
				L297.336,231.082z"/>
			<g>
				<path style="fill:#32806E;" d="M300.481,199.898l-2.057,20.388l-2.773,27.402c-0.823-0.069-1.616-0.176-2.39-0.294
					c-12.285-1.989-18.076-10.189-18.076-10.189l13.922-29.029c1.656-3.458,4.654-6.074,8.288-7.269L300.481,199.898z"/>
				<path style="fill:#1E4D42;" d="M298.423,220.285c0,0.049-0.01,0.098-0.01,0.147l-2.763,27.255
					c-0.823-0.069-1.616-0.176-2.39-0.294l2.9-27.197c0.059-0.578,0.549-1.019,1.117-1.019c0.039,0,0.069,0.01,0.108,0.01
					C297.963,219.237,298.404,219.717,298.423,220.285z"/>
			</g>
		</g>
		<path style="fill:#CC7474;" d="M239.086,218.679c0,0-3.601-12.389,8.692-17.632l1.157-0.382c2.453-0.811,5.132,0.3,6.28,2.614
			c0.038,0.077,0.076,0.156,0.114,0.236c1.106,2.358,0.173,5.176-2.052,6.53L239.086,218.679z"/>
		<g>
			<g>
				<path style="fill:#2A396E;" d="M297.351,205.009l-20.779,121.533l-0.561,3.289c-0.029,0.106-0.048,0.223-0.068,0.339
					l-14.898,87.142c-0.232,1.374-0.9,2.631-1.906,3.589l-9.538,9.113l-4.566,4.353l-4.14,3.966
					c-1.432,1.335-3.744,0.938-4.605-0.803l-2.109-4.14l-9.335-18.351c-0.619-1.229-0.842-2.641-0.609-4.024l4.924-28.78
					l26.545-155.265l0.464-2.728l4.373-25.529l13.36,2.283l10.728,1.828l3.705,0.639L297.351,205.009z"/>
				<path style="fill:#415391;" d="M284.63,202.823l-28.635,167.435l-10.96,64.109l-4.14,3.966
					c-1.432,1.335-3.744,0.938-4.605-0.803l-2.109-4.14l9.335-54.628l30.386-177.767L284.63,202.823z"/>
				<path style="fill:#253361;" d="M275.943,330.17l-14.898,87.142c-0.232,1.374-0.9,2.631-1.906,3.589l-9.538,9.113l-4.566,4.353
					l-4.14,3.966c-1.432,1.335-3.744,0.938-4.605-0.803l-2.109-4.14l-9.335-18.351c-0.619-1.229-0.842-2.641-0.609-4.024
					l4.924-28.78C263.164,379.951,273.496,342.214,275.943,330.17z"/>
				<path style="fill:#394980;" d="M255.996,370.258l-10.96,64.109l-4.14,3.966c-1.432,1.335-3.744,0.938-4.605-0.803l-2.109-4.14
					l9.335-54.628C248.324,376.633,252.455,373.682,255.996,370.258z"/>
			</g>
			<g>
				<path style="fill:#FF9191;" d="M260.562,418.899c-0.339,0.746-0.824,1.434-1.425,2.006l-18.249,17.415
					c-1.415,1.347-3.731,0.95-4.603-0.785l-11.436-22.493c-0.339-0.678-0.552-1.405-0.649-2.151
					C229.898,412.163,243.466,411.63,260.562,418.899z"/>
				<path style="fill:#ED8787;" d="M260.56,418.9c-0.34,0.74-0.82,1.43-1.42,2l-18.25,17.42c-1.42,1.35-3.73,0.95-4.6-0.79
					l-5.23-10.28c11.67,0.18,18.34-6.94,21.35-11.35C255.02,416.71,257.74,417.7,260.56,418.9z"/>
			</g>
			<path style="fill:#212D57;" d="M239.433,432.957c-3.14-0.537-5.333,0.286-5.333,0.286l2.026,9.472
				c0.328,1.536,2.363,1.884,3.183,0.544l5.058-8.26C244.368,434.999,242.574,433.494,239.433,432.957z"/>
			
				<rect x="273.592" y="187.71" transform="matrix(0.1685 -0.9857 0.9857 0.1685 27.8611 445.7906)" style="fill:#ABB2CF;" width="9.165" height="37.34"/>
			<g>
				<path style="fill:#CD4040;" d="M300.726,185.29l-0.451,2.616v0.01l-2.929,17.096l-36.798-6.299l0.852-4.967v-0.01l2.518-14.745
					c0.98-5.731,6.417-9.572,12.148-8.602l16.057,2.753C297.855,174.122,301.706,179.549,300.726,185.29z"/>
				<path style="fill:#BD3B3B;" d="M300.275,187.916l-2.929,17.096l-36.798-6.299l0.852-4.967v-0.01
					C287.039,201.367,300.275,187.916,300.275,187.916z"/>
			</g>
		</g>
		<g>
			<path style="fill:#FF9191;" d="M263.23,225.26l-17.46,8.82c0,0-5.78-7.78-6.72-13.91c-0.82-5.3,0.97-10.63,5.3-13.79
				c0,0,0.02-0.01,0.04-0.03c0.44-0.36,4.39-3.45,8.91-4.32c2.53-0.48,5.08,1.04,5.72,3.54c0.03,0.11,0.06,0.22,0.08,0.34
				c0.04,0.16,0.07,0.34,0.09,0.51h0.08c0.21,0.02,0.87,0.11,1.66,0.47c0.06,0.03,0.13,0.06,0.2,0.09c0.06,0.03,0.13,0.06,0.19,0.1
				c1.93,0.96,4.38,3.36,3.67,9.23C264.99,216.31,269.35,221.24,263.23,225.26z"/>
			<path style="fill:#CC7474;" d="M261.13,206.98l-7.38,4.08c-0.05,0.03-0.1,0.05-0.16,0.06c-0.33,0.1-0.69-0.05-0.85-0.38
				c-0.16-0.35-0.02-0.76,0.31-0.94l6.14-3.38h0.08c0.21,0.02,0.87,0.11,1.66,0.47C260.99,206.92,261.06,206.95,261.13,206.98z"/>
			<path style="fill:#CC7474;" d="M264.993,216.315l-6.451,3.258c-0.306,0.155-0.68,0.032-0.835-0.274l0,0
				c-0.156-0.307-0.032-0.682,0.276-0.837l7.119-3.561C265.102,214.902,265.099,215.692,264.993,216.315z"/>
			<path style="fill:#CC7474;" d="M255.317,229.258l-0.371,2.169c-0.623,0.335-2.606,1.27-3.018,1.456
				c-0.113,0.055-0.234,0.077-0.354,0.075c-0.305-0.005-0.599-0.178-0.747-0.477c-0.21-0.421-0.033-0.94,0.387-1.142
				C252.232,230.848,254.539,229.711,255.317,229.258z"/>
		</g>
		<g>
			<g>
				<path style="fill:#FF9191;" d="M356.123,170.71v19.469c-16.257,7.847-31.249,0-31.249,0V170.71H356.123z"/>
				<g>
					<g>
						<path style="fill:#EB8181;" d="M356.123,170.71v10.772c-4.773,2.224-11.069,3.904-19.281,4.052
							c-4.536,0.079-8.509-0.336-11.968-1.067V170.71H356.123z"/>
					</g>
				</g>
			</g>
			<g>
				<g>
					<g>
						<polygon style="fill:#B83A3A;" points="385.896,122.378 386.983,150.604 369.227,151.639 368.127,123.062 						"/>
					</g>
					<g>
						<polygon style="fill:#B83A3A;" points="303.047,126.921 303.952,150.445 294.047,146.783 293.297,127.297 						"/>
					</g>
					<g>
						<path style="fill:#FF9191;" d="M361.627,149.388c0,0,10.223-15.558,21.353-10.44c5.143,2.364,7.799,8.245,6.367,13.72
							c-1.611,6.156-7.657,13.209-27.466,11.37L361.627,149.388z"/>
						<g>
							<path style="fill:#EB8181;" d="M381.845,154.438c-0.945,1.427-2.458,2.777-4.846,3.709
								c-2.646,1.031-6.364,1.544-11.589,1.059l-0.113-6.531c0,0,2.294-3.168,5.523-5.565c1.144-0.855,2.415-1.61,3.731-2.09
								C380.126,142.986,385.124,149.488,381.845,154.438z"/>
							<path style="fill:#CC7474;" d="M378.576,156.347c-0.415,0.622-0.932,1.23-1.577,1.8c-2.646,1.031-6.364,1.544-11.589,1.059
								l-0.113-6.531c0,0,2.294-3.168,5.523-5.565c0.157-0.066,0.313-0.124,0.47-0.181
								C376.865,144.903,381.855,151.396,378.576,156.347z"/>
						</g>
					</g>
					<g>
						<path style="fill:#FF9191;" d="M312.8,149.591c0,0-9.59-13.55-19.351-8.646c-4.51,2.266-6.697,7.588-5.251,12.424
							c1.625,5.436,7.231,11.536,24.828,9.286L312.8,149.591z"/>
						<g>
							<path style="fill:#EB8181;" d="M294.937,154.715c0.886,1.243,2.276,2.399,4.432,3.156c2.39,0.837,5.719,1.18,10.361,0.587
								l-0.101-5.824c0,0-2.142-2.753-5.093-4.789c-1.046-0.727-2.202-1.36-3.389-1.747
								C296.116,144.456,291.862,150.405,294.937,154.715z"/>
							<path style="fill:#CC7474;" d="M297.909,156.315c0.389,0.542,0.869,1.067,1.46,1.556c2.39,0.837,5.719,1.18,10.361,0.587
								l-0.101-5.824c0,0-2.142-2.753-5.093-4.789c-0.141-0.054-0.283-0.101-0.424-0.147
								C299.081,146.064,294.834,152.005,297.909,156.315z"/>
						</g>
					</g>
					<g>
						<g>
							<path style="fill:#FF9191;" d="M368.456,115.906l0.016,1.284l0.466,21.313l0.495,22.353c0.065,3.994-1.49,7.872-4.327,10.672
								c-4.532,4.481-13.089,9.935-28.112,10.192c-15.089,0.26-23.846-4.938-28.507-9.275c-2.905-2.7-4.556-6.488-4.62-10.46
								l-0.67-30.36l-0.205-9.069c0,0-0.002-0.055-0.005-0.122c-0.004-0.111,0-0.277,0.002-0.509l-0.128-6.77
								C315.141,112.345,344.415,108.473,368.456,115.906z"/>
						</g>
						<path style="fill:#EB8181;" d="M368.812,131.559c-15.254-0.298-15.671-14.539-15.671-14.539l-36.959,0.102
							c-10.277,0.813-12.717,8.2-13.089,9.572l-0.098-4.144c0,0-0.01-0.049-0.01-0.118v-0.509l-0.127-6.77
							c12.285-2.812,41.559-6.682,65.601,0.754l0.01,1.283L368.812,131.559z"/>
					</g>
					<path style="fill:#B83A3A;" d="M303.047,126.921c0,0-0.24-4.354,2.978-8.467c2.636-3.369,6.791-5.194,11.069-5.194h39.188
						c0,0-0.134,14.865,12.43,14.865h17.406l0.115-17.905c0.02-3.084-0.795-6.149-2.525-8.703c-1.784-2.634-4.752-5.178-9.615-5.497
						c0,0-5.979-12.039-30.011-8.255c0,0-27.575,4.977-39.726-2.99c-1.018-0.667-2.373-0.516-3.259,0.318
						c-2.12,1.996-5.303,6.024-4.533,11.731c0,0-1.81-0.173-3.825-1.902c-1.337-1.147-3.404-0.71-4.033,0.936
						c-2.338,6.118-5.213,18.916,4.591,31.439L303.047,126.921z"/>
					<path style="fill:#CD4040;" d="M386.221,111.44l-0.078,11.531c-5.976,1.127-14.705,2.4-24.777,2.753
						c-5.163-4.213-5.085-12.462-5.085-12.462h-39.188c-3.018,0-5.966,0.901-8.367,2.616c-7.75-3.909-14.999-9.199-21.211-16.312
						c0.372-1.411,0.794-2.665,1.195-3.713c0.627-1.646,2.694-2.077,4.027-0.931c2.018,1.724,3.831,1.901,3.831,1.901
						c-0.774-5.702,2.41-9.738,4.526-11.727c0.891-0.833,2.243-0.99,3.262-0.323c2.675,1.754,6.094,2.88,9.797,3.566
						C326.802,101.986,350.335,118.729,386.221,111.44z"/>
				</g>
				<g>
					<path style="fill:#212D57;" d="M364.073,132.198c-0.779,2.635-4.259,3.929-7.773,2.889c-3.513-1.039-5.73-4.018-4.95-6.652
						c0.779-2.635,4.259-3.929,7.773-2.889C362.636,126.584,364.852,129.563,364.073,132.198z"/>
					<path style="fill:#212D57;" d="M305.002,133.311c0.818,2.45,4.13,3.553,7.397,2.462c3.268-1.09,5.254-3.961,4.436-6.412
						c-0.818-2.45-4.13-3.553-7.397-2.462C306.17,127.99,304.184,130.861,305.002,133.311z"/>
					<g>
						<path style="fill:#212D57;" d="M337.639,148.627c0.151,2.752-2.315,5.126-5.508,5.302c-3.193,0.176-5.905-1.913-6.056-4.666
							c-0.151-2.752,2.314-5.126,5.508-5.301C334.776,143.786,337.487,145.874,337.639,148.627z"/>
						<g>
							<path style="fill:#CC7474;" d="M338.019,150.63c0.048,2.763-2.379,5.046-5.421,5.099c-3.042,0.053-5.546-2.145-5.593-4.908
								c-0.048-2.763,2.379-5.046,5.42-5.099C335.467,145.669,337.971,147.867,338.019,150.63z"/>
							<path style="fill:#D47E7E;" d="M336.122,150.13c0.033,1.916-1.736,3.501-3.952,3.539c-2.215,0.038-4.038-1.484-4.072-3.4
								c-0.033-1.916,1.736-3.501,3.952-3.539C334.266,146.691,336.089,148.214,336.122,150.13z"/>
						</g>
					</g>
					<g>
						<g>
							<g>
								<path style="fill:#212D57;" d="M358.62,146.313c0.174,4.519-2.938,8.308-6.95,8.462c-4.012,0.154-7.406-3.384-7.58-7.903
									c-0.174-4.519,2.938-8.308,6.95-8.462C355.052,138.255,358.446,141.793,358.62,146.313z"/>
								<path style="fill:#FFFFFF;" d="M352.261,144.998c0.065,1.694-1.255,3.12-2.949,3.185c-1.694,0.065-3.12-1.255-3.185-2.949
									c-0.065-1.694,1.255-3.12,2.949-3.185C350.77,141.984,352.196,143.305,352.261,144.998z"/>
							</g>
						</g>
						<g>
							<g>
								<path style="fill:#212D57;" d="M308.844,148.228c0.164,4.25,3.355,7.578,7.129,7.433c3.774-0.145,6.7-3.708,6.537-7.959
									s-3.356-7.578-7.129-7.433C311.607,140.415,308.68,143.978,308.844,148.228z"/>
								<path style="fill:#FFFFFF;" d="M314.649,145.729c0.061,1.593,1.402,2.835,2.995,2.773c1.593-0.061,2.835-1.402,2.773-2.996
									c-0.061-1.593-1.402-2.835-2.996-2.773C315.83,142.794,314.588,144.135,314.649,145.729z"/>
							</g>
						</g>
					</g>
					<path style="fill:#212D57;" d="M326.663,164.547c0,0,7.521,3.332,14.892-3.465
						C341.555,161.082,337.913,171.184,326.663,164.547z"/>
				</g>
				<g>
					
						<ellipse transform="matrix(0.1608 -0.987 0.987 0.1608 118.4213 432.6096)" style="fill:none;stroke:#FFFFFF;stroke-width:2;stroke-linecap:round;stroke-linejoin:round;stroke-miterlimit:10;" cx="313.608" cy="146.667" rx="12.366" ry="12.366"/>
					
						<circle style="fill:none;stroke:#FFFFFF;stroke-width:2;stroke-linecap:round;stroke-linejoin:round;stroke-miterlimit:10;" cx="352.157" cy="146.263" r="14.008"/>
					
						<line style="fill:none;stroke:#FFFFFF;stroke-width:2;stroke-linecap:round;stroke-linejoin:round;stroke-miterlimit:10;" x1="325.534" y1="143.39" x2="338.444" y2="143.39"/>
					
						<line style="fill:none;stroke:#FFFFFF;stroke-width:2;stroke-linecap:round;stroke-linejoin:round;stroke-miterlimit:10;" x1="365.648" y1="142.486" x2="378.366" y2="137.914"/>
					
						<line style="fill:none;stroke:#FFFFFF;stroke-width:2;stroke-linecap:round;stroke-linejoin:round;stroke-miterlimit:10;" x1="302.446" y1="141.164" x2="299.184" y2="139.958"/>
				</g>
			</g>
		</g>
	</g>
	<g>
		<path style="fill:#F9A53F;" d="M240.139,91.401c0-15.898-12.888-28.786-28.786-28.786c-15.898,0-28.786,12.888-28.786,28.786
			c0,12.04,7.395,22.349,17.889,26.645v8.942h21.796v-8.942C232.744,113.749,240.139,103.441,240.139,91.401z"/>
		<path style="fill:#ABB2CF;" d="M222.916,128.319v4.224c0,0.801-0.076,1.571-0.238,2.329c-0.098,0.498-0.238,0.997-0.412,1.473
			c-0.39,1.148-0.964,2.21-1.69,3.163c-0.401,0.531-0.834,1.018-1.322,1.462c-2.069,1.95-4.842,3.13-7.907,3.13
			c-3.065,0-5.827-1.181-7.896-3.13c-0.487-0.444-0.921-0.932-1.321-1.462c-0.715-0.953-1.289-2.015-1.69-3.163
			c-0.173-0.477-0.314-0.975-0.412-1.473c-0.152-0.758-0.238-1.527-0.238-2.329v-4.224H222.916z"/>
		<rect x="199.793" y="128.323" style="fill:#989EB8;" width="23.119" height="3.226"/>
		<path style="fill:#989EB8;" d="M222.678,134.872c-0.098,0.498-0.238,0.997-0.412,1.473H200.44
			c-0.173-0.477-0.314-0.975-0.412-1.473H222.678z"/>
		<path style="fill:#989EB8;" d="M220.576,139.508c-0.401,0.531-0.834,1.018-1.322,1.462h-15.803
			c-0.487-0.444-0.921-0.932-1.321-1.462H220.576z"/>
		<path style="fill:none;stroke:#FFFFFF;stroke-width:2;stroke-linecap:round;stroke-linejoin:round;stroke-miterlimit:10;" d="
			M215.45,124.238v-19.407c0-1.747,1.416-3.163,3.163-3.163l0,0c1.747,0,3.163,1.416,3.163,3.163v0.101
			c0,1.744-1.412,3.159-3.156,3.163l-7.268,0.017l-7.268-0.017c-1.744-0.004-3.156-1.419-3.156-3.163v-0.101
			c0-1.747,1.416-3.163,3.163-3.163l0,0c1.747,0,3.163,1.416,3.163,3.163v19.407"/>
		<path style="fill:#ABB2CF;" d="M221.478,129.738h-20.251c-1.519,0-2.75-1.231-2.75-2.75l0,0c0-1.519,1.231-2.75,2.75-2.75h20.251
			c1.519,0,2.75,1.231,2.75,2.75l0,0C224.228,128.507,222.997,129.738,221.478,129.738z"/>
		<path style="fill:#FFAE4D;" d="M231.33,86.356c-3.278,5.677-11.666,6.971-18.736,2.889c-7.07-4.082-10.144-11.993-6.866-17.67
			c3.278-5.677,11.666-6.971,18.735-2.889C231.533,72.768,234.607,80.679,231.33,86.356z"/>
	</g>
</g>
</svg>
